<?xml version="1.0" encoding="utf-8"?>
<!-- Generator: Adobe Illustrator 19.0.0, SVG Export Plug-In . SVG Version: 6.00 Build 0)  -->
<svg version="1.1" id="Livello_1" xmlns="http://www.w3.org/2000/svg" xmlns:xlink="http://www.w3.org/1999/xlink" x="0px" y="0px"
	 viewBox="-232.5 346.5 100 100" style="enable-background:new -232.5 346.5 100 100;" xml:space="preserve">
<style type="text/css">
	.st0{fill:#010000;}
</style>
<g>
	<path class="st0" d="M-137.3,429.5l1.6-1.4l0.8-0.2v-65.4v-1.1v-4.5h-11.9v4.5h-8v7.4h2.9l0.5,3.2l-3.5,1.1v3.4h-5.7v7.8l2.6,0.7
		l1.1,3.4l-3.7,2.2v10.6h-6.8v5l4.2,0.6l-0.4,4.1l3.6,2.5l-0.4,4.2l-7.3-0.7v4.6h-9.6v2.8l2.4,0.7l1.6,1.9l3,0.9l1.7,2l-0.5,0.6h5.7
		v-0.3V430l2.1-1.9l2.7,1.2l1.1,1.1h4.3l-0.3-2.2V428l2.8-2.5l3.8,1.8l1.1,1.1l2.4,1.1l1.1,1.1h5.1l-0.1-0.8V429.5z M-150.8,376.4
		h8.1v3h-8.1V376.4z M-140.3,381.3v3h-8.1v-3H-140.3z M-152.7,389.2v-3h8.1v3H-152.7z M-142.1,404.6v3h-8.1v-3H-142.1z
		 M-142.1,417.7h-8.1v-3h8.1V417.7z M-139.6,412.5h-8.1v-3h8.1V412.5z"/>
	<polygon class="st0" points="-220,429.9 -218.4,428.9 -220.1,424.6 -223.3,423.1 -229.3,426.3 -229.2,427.7 -225.8,428.6 
		-224.3,430.4 -220.9,430.3 -219.9,430.2 -220,430 	"/>
	<polygon class="st0" points="-182,429.7 -182.1,429.5 -179.8,428.2 -177.1,429 -176.8,429.6 -176.9,428.7 -176.9,428.5 -174,426.9 
		-175.2,425.4 -179.4,424.1 -182,425.4 -183,429.6 -182,430 	"/>
	<polygon class="st0" points="-229.3,428.2 -231.9,429.7 -231.5,431.9 -229.8,432.5 -226.2,432.4 -224.8,430.7 -226.1,429.2 	"/>
	<polygon class="st0" points="-169.3,429.9 -170.6,428.3 -173.8,427.3 -176.3,428.9 -176.1,430.9 -176.8,431.5 -176.5,432.9 
		-175.4,433.3 -173.4,433.2 -172.2,432.3 -172.6,431.6 -170.7,431.5 	"/>
	<polygon class="st0" points="-179.7,428.8 -181.4,429.8 -181.4,430.5 -183.1,429.7 -184.7,431.1 -184.6,431.8 -186.4,431 
		-188,432.4 -187.8,433.8 -186.6,434.3 -184.1,434.2 -182.9,433.2 -183.1,433 -180.8,432.9 -179.7,431.9 -179.9,431.6 -177.6,431.6 
		-176.9,430.5 -177.6,429.4 	"/>
	<polygon class="st0" points="-217.7,429.2 -219.4,430.2 -219.2,431.6 -217.9,432.1 -215.6,432 -215.4,430.8 -215.6,429.8 	"/>
	<polygon class="st0" points="-148.5,430 -146.6,428.5 -147.3,427.7 -150.6,426.2 -153,428.3 -152.6,430.5 -151,431.1 -148.3,431 
		-148.4,430.1 	"/>
	<polygon class="st0" points="-193.4,428.4 -194.8,429.6 -194.6,431 -193.5,431.4 -191.4,431.3 -190.3,430.3 -191.5,428 	"/>
	<polygon class="st0" points="-134.2,428.4 -135.8,428.6 -137,429.7 -136.8,430.8 -135.9,431.1 -134.1,431 -133.1,430.2 	"/>
	<polygon class="st0" points="-146.3,428.8 -147.9,430.2 -147.7,431.7 -146.4,432.1 -144,432.1 -142.7,431 -143.9,429.9 	"/>
	<polygon class="st0" points="-161.3,428.8 -162.9,430.2 -162.7,431.7 -161.6,432.1 -159,432.1 -157.8,431 -159,429.9 	"/>
	<polygon class="st0" points="-200.7,431.1 -198.8,431 -197.7,430 -198.8,428.8 -201.1,427.7 -201.5,428 -202.1,426.4 -205.3,425 
		-211.2,428.2 -211,429.6 -207.8,430.6 -206.3,432.3 -202.9,432.3 -201.9,432.2 -201.9,432 -201.9,431.8 	"/>
	<polygon class="st0" points="-211.3,430.1 -213.8,431.6 -213.5,433.8 -211.8,434.4 -208.2,434.3 -206.8,432.6 -208,431 	"/>
	<polygon class="st0" points="-199.6,431.1 -201.3,432.1 -201.1,433.6 -199.9,433.9 -197.5,433.8 -197.3,432.7 -197.4,431.7 	"/>
	<polygon class="st0" points="-168.4,432.9 -170,434.3 -169.7,435.8 -168.5,436.2 -166.1,436.1 -164.8,435.1 -166,433.9 	"/>
</g>
</svg>
