<?xml version="1.0" encoding="utf-8"?>
<!-- Generator: Adobe Illustrator 19.0.0, SVG Export Plug-In . SVG Version: 6.00 Build 0)  -->
<svg version="1.1" id="Livello_1" xmlns="http://www.w3.org/2000/svg" xmlns:xlink="http://www.w3.org/1999/xlink" x="0px" y="0px"
	 viewBox="-227 347.4 100 100" style="enable-background:new -227 347.4 100 100;" xml:space="preserve">
<g>
	<polygon points="-175.8,412.9 -173.2,411.3 -174.2,410.1 -178,409 -180.3,410.2 -181.2,413.8 -180.3,414.1 -180.4,413.9 
		-180.4,413.7 -178.3,412.5 -176,413.2 -175.7,413.8 -175.7,413.1 	"/>
	<polygon points="-222.6,412.6 -224.9,413.9 -224.7,415.9 -223,416.4 -219.9,416.3 -218.7,414.8 -219.7,413.4 	"/>
	<polygon points="-178.3,413.1 -179.8,414 -179.7,414.6 -181.3,413.9 -182.8,415.2 -182.7,415.8 -184.2,415.1 -185.7,416.3 
		-185.4,417.7 -184.4,418 -182.2,417.9 -181.1,417 -181.3,416.8 -179.3,416.8 -178.3,415.9 -178.5,415.7 -176.4,415.6 -175.8,414.6 
		-176.3,413.6 	"/>
	<polygon points="-212.2,413.5 -213.7,414.4 -213.6,415.7 -212.5,416 -210.3,416 -210.1,414.9 -210.3,414 	"/>
	<polygon points="-150.4,414.2 -149,413 -147.9,412.9 -146.8,412 -147.8,411 -149.9,410 -151.3,411.3 -152.3,410.8 -154.3,412.7 
		-154.1,414.6 -152.5,415.1 -150.2,415.1 -150.3,414.3 	"/>
	<polygon points="-139,412.9 -140.1,414 -139.9,414.9 -139.1,415.2 -137.4,415.1 -136.6,414.5 -137.5,412.7 	"/>
	<polygon points="-148.3,413.2 -149.8,414.4 -149.6,415.8 -148.6,416.1 -146.3,416 -145.3,415.1 -146.2,414.1 	"/>
	<polygon points="-206.5,414.3 -208.8,415.6 -208.5,417.6 -207,418.1 -203.7,418 -202.5,416.5 -203.6,415.1 	"/>
	<polygon points="-196,415.2 -197.6,416.1 -197.4,417.4 -196.4,417.7 -194.3,417.7 -194,416.6 -194.2,415.7 	"/>
	<polygon points="-168.1,416.8 -169.5,418 -169.4,419.4 -168.3,419.7 -166,419.6 -165,418.7 -166,417.7 	"/>
	<polygon points="-129.3,383.7 -129.1,383.7 -129.1,380.2 -129.4,380.5 -130.7,379.5 -131.3,377.6 -132.5,376.6 -133,375.1 
		-134.8,375.1 -134.8,381.2 -137.7,381.2 -137.2,385.8 -139.9,386 -141.4,383.7 -143.9,383.8 -144.3,381.2 -147.5,381.2 
		-147.5,385.4 -154.2,385.4 -155.5,387.8 -157.7,387.1 -158.1,385.4 -163,385.4 -163,389 -165.2,389 -165.8,391.3 -167.8,390.9 
		-167.8,389 -172.4,389 -172.4,394 -175.3,394 -175.3,401.2 -177.9,401.2 -177.9,396.2 -182.5,396.2 -182.5,398 -184.6,398.4 
		-185.3,396.2 -187.4,396.2 -187.4,392.6 -192.2,392.6 -192.7,394.2 -194.8,394.9 -196.2,392.6 -202.9,392.6 -202.9,388.3 
		-206.1,388.3 -206.5,391 -209,390.9 -210.5,393.1 -213.2,392.9 -212.7,388.3 -215.6,388.3 -215.6,382.3 -217.4,382.3 -217.9,383.7 
		-219.1,384.8 -219.6,386.6 -220.9,387.7 -221.3,387.4 -221.3,390.9 -221.1,390.9 -221,390.9 -219.9,392.2 -220.7,393.9 
		-221.3,394.6 -221.3,397.3 -219.9,397.2 -219.8,397.2 -218.3,398.9 -219.3,401.3 -220,401.9 -220.7,403.4 -221.3,404 -221.3,407.3 
		-220.9,407.2 -220.7,407.2 -219.8,408.2 -219.7,408.7 -218.6,408.7 -222.6,410.9 -222.5,412.1 -219.5,413 -218.2,414.5 
		-215.1,414.5 -214.2,414.4 -214.2,414.3 -214.2,414.1 -212.9,413.2 -214.4,409.3 -215.6,408.7 -210.6,408.7 -210.5,409 
		-207.5,409.9 -206.2,411.5 -204.2,411.4 -206.5,412.6 -206.3,413.8 -203.3,414.7 -202,416.2 -199,416.2 -198.1,416.1 -198.1,416 
		-198.1,415.8 -197,415.1 -195.4,415.1 -195.2,415 -195,415 -191.8,414.9 -191.6,414.8 -191.6,415.1 -190.6,415.4 -188.8,415.3 
		-187.7,414.5 -188.4,413.1 -187.1,413.1 -186.2,413 -186.2,412.9 -186.2,412.8 -185,412 -183.5,412 -182.5,411.1 -183.4,410.1 
		-185.5,409.1 -185.8,409.3 -186,408.7 -178.7,408.7 -177.9,408.7 -175.1,408.7 -175.1,408.6 -172.4,408.6 -171.8,408.6 
		-168.7,408.6 -169.3,410.7 -168.3,411.1 -168.4,410.8 -168.4,410.7 -166.4,409.4 -164,410.2 -163.7,410.7 -163.8,410 -163.9,409.8 
		-161.8,408.6 -141.3,408.6 -142.4,409.6 -142.2,411.5 -140.6,412 -138.2,412 -138.4,411.2 -138.4,411.1 -136.8,409.7 -137.3,409.1 
		-138.6,408.6 -130.6,408.6 -130.6,401 -129.7,400 -129.6,400 -129.1,400.1 -129.1,396.9 -129.7,396.2 -130.4,394.7 -131,394.1 
		-132.2,391.7 -130.6,390 -130.5,390 -129.1,390.1 -129.1,387.4 -129.7,386.7 -130.6,385 -129.3,383.7 	"/>
	<polygon points="-207.9,413.2 -206.7,411.7 -207.8,410.3 -210.7,409.5 -212.9,410.8 -212.7,412.8 -211.1,413.3 	"/>
	<polygon points="-157,411 -158.1,409.6 -161,408.7 -163.3,410.1 -163.1,411.9 -163.6,412.4 -163.5,413.7 -162.8,414 -163.2,414.4 
		-163.1,415.8 -162,416.1 -159.7,416 -158.7,415.1 -159.7,414.1 -160.5,413.8 -159.7,413.1 -159.9,412.6 -158.2,412.5 	"/>
	<polygon points="-166.4,410 -167.8,410.9 -167.7,411.6 -169.4,410.8 -170.8,412.1 -170.8,412.5 -173,411.8 -175.3,413.2 -175,415 
		-175.6,415.5 -175.4,416.8 -174.5,417.1 -172.6,417 -171.6,416.2 -171.9,415.6 -170.2,415.6 -169,414.1 -169.2,413.7 -167.3,413.7 
		-166.3,412.8 -166.5,412.6 -164.4,412.5 -163.9,411.5 -164.3,410.6 	"/>
	<polygon points="-133.5,411.9 -134.4,411 -136.4,410 -137.8,411.3 -137.7,412.6 -136.6,413 -134.6,412.9 -134.5,413.8 
		-133.7,414.1 -132,414.1 -131.2,413.3 -132.1,411.6 	"/>
	<polygon points="-182.3,414.6 -182.1,413.6 -182.2,412.6 -184.2,412.1 -185.6,413 -185.4,414.3 -184.4,414.6 	"/>
	<polygon points="-157.6,414.9 -157.4,416.3 -156.3,416.6 -154.1,416.6 -153,415.7 -154.1,414.6 -156.2,413.7 	"/>
</g>
</svg>
