<?xml version="1.0" encoding="utf-8"?>
<!-- Generator: Adobe Illustrator 19.0.0, SVG Export Plug-In . SVG Version: 6.00 Build 0)  -->
<svg version="1.1" id="Livello_1" xmlns="http://www.w3.org/2000/svg" xmlns:xlink="http://www.w3.org/1999/xlink" x="0px" y="0px"
	 viewBox="-231 346.8 100 100" style="enable-background:new -231 346.8 100 100;" xml:space="preserve">
<path d="M-140.8,407.3l-3.8-7.3l5-3.8c-3.1-3.5-7.4-5.7-12.2-6.3l-0.2,6.2l-8.1,1.2l-1.9-5.9c-4.5,1.9-8,5.4-10.1,9.7l5.9,2.2
	l-1.6,8.1l-6.1-0.1c0,0.4,0.1,0.7,0.2,1.2c0.7,4.4,2.6,8.3,5.5,11.1l4-4.7l7.1,4.1l-2.1,5.8c2.5,0.7,5.2,0.8,7.9,0.5
	c2.8-0.4,5.4-1.3,7.6-2.7l-3.7-5l5.6-5.9l5.2,3.5c1.9-3.6,2.7-7.8,2.1-12.1c-0.1-0.5-0.2-0.9-0.2-1.3L-140.8,407.3L-140.8,407.3z
	 M-153.2,416.2c-3.6,0.5-7.1-2-7.6-5.7c-0.5-3.6,2-7.1,5.7-7.6c3.6-0.5,7.1,2,7.6,5.7C-147,412.2-149.5,415.6-153.2,416.2
	L-153.2,416.2z"/>
<path d="M-194.4,416.4l-3.1-7.6l5.4-3.3c-2.8-3.7-6.9-6.4-11.6-7.3l-0.7,6.1l-8.2,0.4l-1.3-6c-4.6,1.5-8.5,4.6-10.9,8.8l5.6,2.8
	l-2.4,7.8l-6.1-0.7c0,0.4,0,0.7,0,1.2c0.2,4.5,1.9,8.4,4.5,11.6l4.4-4.3l6.7,4.8l-2.6,5.5c2.4,0.9,5,1.3,7.8,1.2
	c2.8-0.2,5.4-0.8,7.8-2.1l-3.3-5.4l6.2-5.4l4.9,4c2.2-3.4,3.5-7.5,3.2-11.9c0-0.5-0.1-0.9-0.1-1.4L-194.4,416.4L-194.4,416.4z
	 M-207.6,424.1c-3.7,0.2-6.9-2.6-7-6.4c-0.2-3.7,2.6-6.9,6.4-7s6.9,2.6,7,6.4C-201,420.7-203.9,423.9-207.6,424.1L-207.6,424.1z"/>
<path d="M-169.9,377.1l-4.5-8.8l6-4.5c-3.8-4.1-8.9-6.9-14.6-7.5l-0.2,7.4l-9.7,1.4l-2.3-7c-5.4,2.3-9.6,6.5-12.1,11.6l7,2.6
	l-1.9,9.7l-7.3-0.2c0,0.5,0.1,0.9,0.2,1.4c0.7,5.3,3.2,9.9,6.7,13.4l4.8-5.7l8.5,5l-2.6,6.9c3,0.8,6.2,1,9.5,0.6
	c3.3-0.5,6.4-1.7,9.1-3.3l-4.5-6.1l6.8-7.1l6.2,4.1c2.3-4.3,3.3-9.3,2.6-14.5c-0.1-0.6-0.2-1.1-0.3-1.7L-169.9,377.1L-169.9,377.1z
	 M-184.8,387.9c-4.4,0.7-8.5-2.4-9.1-6.9c-0.7-4.4,2.4-8.5,6.9-9.1c4.4-0.7,8.5,2.4,9.1,6.9C-177.3,383.2-180.4,387.2-184.8,387.9
	L-184.8,387.9z"/>
</svg>
