<?xml version="1.0" encoding="utf-8"?>
<!-- Generator: Adobe Illustrator 19.0.0, SVG Export Plug-In . SVG Version: 6.00 Build 0)  -->
<svg version="1.1" id="Livello_1" xmlns="http://www.w3.org/2000/svg" xmlns:xlink="http://www.w3.org/1999/xlink" x="0px" y="0px"
	 viewBox="-305 346.8 100 100" style="enable-background:new -305 346.8 100 100;" xml:space="preserve">
<g>
	<path d="M-241.4,364.3h-27.2c-2.6,0-4.7,2.1-4.7,4.7c0,2.3,1.6,4.2,3.7,4.6v56.2c-0.1,8.1,6.5,14.5,14.5,14.5s14.5-6.6,14.5-14.5
		v-56.2c2.1-0.5,3.7-2.4,3.7-4.6C-236.8,366.4-238.9,364.3-241.4,364.3z M-241.4,371h-1.6v58.8c0,6.7-5.4,12-12,12s-12-5.4-12-12
		V371h-1.6c-1.1,0-2.1-1-2.1-2.1c0-1.1,1-2.1,2.1-2.1h27.2c1.1,0,2.1,0.9,2.1,2.1S-240.3,371-241.4,371z"/>
	<circle cx="-263.2" cy="359" r="2.8"/>
	<circle cx="-259.4" cy="380.4" r="2.8"/>
	<path d="M-251.8,377.6c1.5,0,2.8-1.2,2.8-2.8c0-1.5-1.2-2.8-2.8-2.8c-1.6,0.1-2.8,1.3-2.8,2.8
		C-254.5,376.4-253.3,377.6-251.8,377.6z"/>
	<path d="M-258.6,354c1.3,0,2.4-1,2.4-2.4c0-1.3-1-2.4-2.4-2.4c-1.3,0-2.4,1-2.4,2.4C-261,353-259.9,354-258.6,354z"/>
	<path d="M-253.2,390.8c1.9,0,3.4-1.5,3.4-3.4c0-1.9-1.5-3.4-3.4-3.4c-1.9,0.1-3.4,1.6-3.4,3.4
		C-256.6,389.3-255.1,390.8-253.2,390.8z"/>
	<path d="M-254.5,361.4c1,0,1.7-0.8,1.7-1.7c0-1-0.8-1.7-1.7-1.7c-0.9,0-1.7,0.8-1.7,1.7C-256.2,360.6-255.5,361.4-254.5,361.4z"/>
	<path d="M-260.3,372.2c1,0,1.7-0.8,1.7-1.7s-0.8-1.7-1.7-1.7s-1.7,0.8-1.7,1.7S-261.3,372.2-260.3,372.2z"/>
	<path d="M-264.9,429.8c0,5.3,4.3,9.6,9.6,9.6c5.3,0,9.6-4.3,9.6-9.6v-34.6h-19.2V429.8z M-249.8,400.6c1.5,0,2.8,1.2,2.8,2.8
		c0,1.5-1.2,2.8-2.8,2.8s-2.8-1.2-2.8-2.8C-252.5,401.8-251.3,400.7-249.8,400.6z M-254.5,408.9c0,1-0.8,1.7-1.7,1.7
		s-1.7-0.8-1.7-1.7c0-0.9,0.8-1.7,1.7-1.7S-254.5,407.9-254.5,408.9z M-258.6,396.6c1.9,0,3.4,1.5,3.4,3.4c0,1.9-1.5,3.4-3.4,3.4
		c-1.9,0-3.4-1.5-3.4-3.4C-262,398.1-260.5,396.6-258.6,396.6z"/>
</g>
</svg>
