<?xml version="1.0" encoding="utf-8"?>
<!-- Generator: Adobe Illustrator 19.0.0, SVG Export Plug-In . SVG Version: 6.00 Build 0)  -->
<svg version="1.1" id="Livello_1" xmlns="http://www.w3.org/2000/svg" xmlns:xlink="http://www.w3.org/1999/xlink" x="0px" y="0px"
	 viewBox="-252.7 347.3 100 100" style="enable-background:new -252.7 347.3 100 100;" xml:space="preserve">
<g>
	<path d="M-166.9,409.6c0.1,0,0.3,0,0.4,0v-32h-7v21.5l-17.3,12.4h-25.1l-17.2-12.4v-21.5h-7.4v40.8h60.7
		C-177.8,413.3-172.8,409.6-166.9,409.6z"/>
	<path d="M-166.9,411.4c-6.5,0-11.8,5.3-11.8,11.8c0,6.5,5.3,11.8,11.8,11.8c6.5,0,11.8-5.3,11.8-11.8
		C-155.1,416.8-160.4,411.5-166.9,411.4z M-166.9,428.7c-3.1,0-5.4-2.5-5.4-5.4s2.5-5.4,5.4-5.4s5.4,2.5,5.4,5.4
		C-161.5,426.3-164,428.7-166.9,428.7z"/>
	<path d="M-180.2,389c0.2-4.3,0.2-9.2-0.6-11.4c-1.8-5.3-11.3-18.1-11.3-18.1h-22.8c0,0-9.6,12.7-11.3,18.1
		c-0.7,2.3-0.7,7.2-0.6,11.4H-180.2z"/>
	<path d="M-212.9,405.9h18.8l13.3-9.1c0,0,0.2-1.6,0.3-3.8h-46.1c0.2,2.3,0.3,3.8,0.3,3.8L-212.9,405.9z"/>
	<path d="M-244.8,421.2v-22.7c0-0.7-0.3-0.7-0.6-0.7h-4.3c-0.3,0-0.6,0-0.6,0.7v23.6v0.9v2.4c0,0.5,0.5,0.9,1.2,0.9h6.7v8.8h5
		l2.3-8.8h54.7c-0.1-0.7-0.2-1.4-0.2-2.1c0-1,0.1-2.1,0.3-3H-244.8z"/>
</g>
</svg>
