<?xml version="1.0" encoding="utf-8"?>
<!-- Generator: Adobe Illustrator 19.0.0, SVG Export Plug-In . SVG Version: 6.00 Build 0)  -->
<svg version="1.1" id="Layer_2" xmlns="http://www.w3.org/2000/svg" xmlns:xlink="http://www.w3.org/1999/xlink" x="0px" y="0px"
	 viewBox="-87 347 100 100" style="enable-background:new -87 347 100 100;" xml:space="preserve">
<path d="M-6.9,412h-67.9c0.4-0.2,0.7-0.4,1-0.6h22.9h5.8h27.9h1.1h4.9C-10.9,411.7-8.4,412-6.9,412s3.4-0.6,3.4-0.6h5.1v-10.4h-12.7
	c0,0,3-5.2,3.8-6.5c0.8-1.4,2.2-1.5,2.2-1.5l6.4,0v-2.2c0,0-4.2,0-6,0c-0.6,0-2.5-0.1-4,2.3c-2,3.2-4.2,8-5.7,8h-2.7v6H-45v-11.7
	h27.9v-2.7H-45v-0.9h27.8v-1.3H-45v-12.4h-5.8v12.4h-3.3V379h-7.4v11.2h-1.1V379h-7.5v11.2h-1.5V379h-7.5v11.2h-3.4v1.3h3.4h7.5h1.5
	h7.5h1.1h7.4h3.3v0.9h-31.8v2.7h31.8v11.7h-20.9c-0.2-2.5-2.4-4.5-5-4.5c-2.8,0-5,2.2-5,5c0,2.1,1.3,3.8,3,4.6H-86v4.2H12V412H-6.9z
	 M-15.9,402.1h16v8.2h-16V402.1z M-80.3,407.4c0-1.9,1.6-3.5,3.6-3.5s3.6,1.6,3.6,3.5c0,0.3-0.1,0.7-0.2,1l-0.4,0.9
	c-0.6,1-1.7,1.6-3,1.6C-78.8,410.9-80.3,409.3-80.3,407.4z"/>
</svg>
