<?xml version="1.0" encoding="utf-8"?>
<!-- Generator: Adobe Illustrator 19.0.0, SVG Export Plug-In . SVG Version: 6.00 Build 0)  -->
<svg version="1.1" id="Livello_1" xmlns="http://www.w3.org/2000/svg" xmlns:xlink="http://www.w3.org/1999/xlink" x="0px" y="0px"
	 viewBox="-227 347.4 100 100" style="enable-background:new -227 347.4 100 100;" xml:space="preserve">
<g>
	<path d="M-135.5,436.3v-63.1v-3v-7.9v-4v0h-22v0v4v7.9h-7.4v3h7.4v14h-14V384h-4v3.2h-6.6v3h6.6v16h-14v-5.2h-4v5.2v3v27.1h-6.2
		v-7.7l-3.2-2.5h-4.1v-61.2h17.7v6.1h-0.7v3.2h0.7l-4.8,3.5v7.2h11.7v-7.2l-4.8-3.5h0.8V371h-0.8v-6.1h3.1h3v-2.6l-3-2h-5.1
		l-17.4-3.8l-0.4-1h-4l-0.4,1l-11,3.8h-1.6v4.6h13v61.2h-4.1l-3.2,2.5v7.7h-6.7v3.2h95.8v-3.2H-135.5z M-184.4,377.8h-8l4.1-2.8
		L-184.4,377.8z M-206.3,357.1l14.4,3.1h-13.4L-206.3,357.1L-206.3,357.1z M-220.6,360.3l9.1-3.1l-1.1,3.1H-220.6z M-139.5,409.2
		v16.9h-14v-16.9H-139.5z M-153.5,406.2v-16h14v16H-153.5z M-157.5,426.1h-14v-16.9h14V426.1z M-153.5,362.3h14v7.9h-14V362.3z
		 M-153.5,373.2h14v14h-14V373.2z M-171.5,390.2h14v16h-14V390.2z M-175.5,409.2v16.9h-14v-16.9H-175.5z"/>
	<rect x="-223.9" y="365.6" width="7.7" height="4.3"/>
</g>
</svg>
